<svg width="500" height="500" viewBox="0 0 500 500" fill="none" xmlns="http://www.w3.org/2000/svg">
  <circle cx="250" cy="250" r="240" fill="url(#purpleGradient)" />
  
  <!-- Gradient definition -->
  <defs>
    <radialGradient id="purpleGradient" cx="250" cy="250" r="240" gradientUnits="userSpaceOnUse">
      <stop offset="0%" stop-color="#9b4dff" />
      <stop offset="100%" stop-color="#6200EE" />
    </radialGradient>
    
    <pattern id="pattern" x="0" y="0" width="20" height="20" patternUnits="userSpaceOnUse">
      <path d="M0,10 Q5,0 10,10 Q15,20 20,10" stroke="#8833ff" stroke-width="2" fill="none" />
    </pattern>
  </defs>
  
  <!-- Pattern overlay -->
  <circle cx="250" cy="250" r="240" fill="url(#pattern)" opacity="0.7" />
  
  <!-- Add ripple effect -->
  <g opacity="0.6">
    <circle cx="250" cy="250" r="180" stroke="#7020FF" stroke-width="2" fill="none" />
    <circle cx="250" cy="250" r="150" stroke="#7020FF" stroke-width="2" fill="none" />
    <circle cx="250" cy="250" r="120" stroke="#7020FF" stroke-width="2" fill="none" />
    <circle cx="250" cy="250" r="90" stroke="#7020FF" stroke-width="2" fill="none" />
    <circle cx="250" cy="250" r="60" stroke="#7020FF" stroke-width="2" fill="none" />
  </g>
  
  <!-- Add horizontal lines for 3D effect -->
  <path d="M50,250 H450" stroke="#8833ff" stroke-width="1.5" opacity="0.8" />
  <path d="M70,200 H430" stroke="#8833ff" stroke-width="1.5" opacity="0.8" />
  <path d="M70,300 H430" stroke="#8833ff" stroke-width="1.5" opacity="0.8" />
  <path d="M100,150 H400" stroke="#8833ff" stroke-width="1.5" opacity="0.8" />
  <path d="M100,350 H400" stroke="#8833ff" stroke-width="1.5" opacity="0.8" />
  <path d="M150,100 H350" stroke="#8833ff" stroke-width="1.5" opacity="0.8" />
  <path d="M150,400 H350" stroke="#8833ff" stroke-width="1.5" opacity="0.8" />
  
  <!-- Add vertical lines for 3D effect -->
  <path d="M250,50 V450" stroke="#8833ff" stroke-width="1.5" opacity="0.8" />
  <path d="M200,70 V430" stroke="#8833ff" stroke-width="1.5" opacity="0.8" />
  <path d="M300,70 V430" stroke="#8833ff" stroke-width="1.5" opacity="0.8" />
  <path d="M150,100 V400" stroke="#8833ff" stroke-width="1.5" opacity="0.8" />
  <path d="M350,100 V400" stroke="#8833ff" stroke-width="1.5" opacity="0.8" />
  <path d="M100,150 V350" stroke="#8833ff" stroke-width="1.5" opacity="0.8" />
  <path d="M400,150 V350" stroke="#8833ff" stroke-width="1.5" opacity="0.8" />
</svg>